<svg xmlns="http://www.w3.org/2000/svg" viewBox="0 0 500 493"><defs><style>.a{fill:#b28069;}.b{fill:#e8a2a0;}.c{fill:#a87560;}.d{fill:#ad7b6a;}.e{fill:#c69683;}.f{opacity:0.22;}.g{fill:#995e47;}.h{fill:#1c0f03;}.i{fill:#f4dac9;}.j{fill:#edd0c0;}.k{fill:#efa9a5;}.l{fill:#ef1d1d;}.m{fill:#a36a54;}.n{fill:#d68778;}.o{fill:#965f4e;}.p{fill:#996355;}.q{fill:#ad6e60;}.r{fill:#160b03;}.s{fill:#efb5a8;}.t{fill:#e5af61;}.u{fill:#8e3e36;}.v{fill:#8c4937;}</style></defs><title>bears</title><path class="a" d="M158.57,78.65c21.94,14.1,25.56,32.5,31.06,31.07,6.94-1.81,13.72-34.3-2.82-45.19-13.59-9-36.46.94-36.72,7.06C150,74,153.46,75.37,158.57,78.65Z"/><path class="b" d="M164.21,81.21c14.61,9.39,17,21.64,20.69,20.69,4.62-1.2,9.13-22.84-1.88-30.09-9.05-6-24.28.62-24.45,4.7C158.5,78.12,160.8,79,164.21,81.21Z"/><path class="c" d="M147.27,414.73c-8.32,18.61-8.8,32.89-8.47,48,.28,13,2.27,16.34,4.23,18.36,7.78,8,25.46,5.44,36.72-1.41,21.37-13,23.06-43.63,24-60.72.44-8,2.64-47.75-11.29-52.25C178.92,362.35,156.78,393.45,147.27,414.73Z"/><path class="c" d="M162.81,208.83c10-2.63,32.06,48.33,33.68,52.06,18.34,42.29,12.08,60.58,30.71,77.65,3.55,3.24,14.05,12,12.33,20.59-.55,2.77-2.55,5.25-6.56,10.23-3.47,4.3-6.24,7.66-10.86,9a17.86,17.86,0,0,1-7.05.35c-22-3.47-39.61-57.42-39.61-57.42C159.77,273.34,152.25,211.62,162.81,208.83Z"/><path class="a" d="M200.75,389.21A73.64,73.64,0,0,1,196.69,402c-2.17,4.87-14.95,32.1-43.77,42.36-15.13,5.38-28.4,3.87-36.72,2.83-4-.51-35.82-4.89-56.48-26.83a43.66,43.66,0,0,1-3.32-4c-6.11-8.46-9.64-17.62-11.55-28.5-3.15-17.93-1.91-40.48-.66-72,.31-7.76.53-14.64.7-20.73.89-30.34.31-41.24,0-46.34-1.51-24.87-4-32.58-5.64-49.42-3.61-37.52-8.12-84.67,17.65-112.27C87.82,54,158,53.8,181.16,84.3c12.92,17,12.36,43.3,12,60-.25,11.84-.46,22-5.65,33.89C182,190.86,176,193.89,173.39,205a20.66,20.66,0,0,0-.58,3.87,65.34,65.34,0,0,0,4.82,27.2c6.24,14.19,11.9,40.15,19.77,76.25S205.32,370,200.75,389.21Z"/><path class="d" d="M146.56,435.2a151.93,151.93,0,0,1-46.18,8.61,105.85,105.85,0,0,0,15.82,3.4c8.32,1,21.6,2.56,36.72-2.83,28.81-10.26,41.6-37.49,43.77-42.36,4.27-9.53,5.33-17.15,4.43-27.26C193.25,401.38,175.84,424.23,146.56,435.2Z"/><path class="c" d="M27.24,373.43c-1.65,6.25,2.79,15.13,7.06,19.05,13,11.92,35.25-12.49,33.89-21.16C66.62,361.23,31.06,359,27.24,373.43Z"/><path class="a" d="M115.88,447.16c-.93,3.48-1.77,7.25-2.5,11.34-2.46,13.79-2.36,24.08-9.88,28.25C94,492,79.11,483.82,71,476.86,59.33,466.81,55.26,453.58,52.66,443c-4.43-18.14-8.87-36.26-10.55-51.91-.29-2.84-.51-5.6-.61-8.27a62.85,62.85,0,0,1,1.42-17.65c1.62-6.57,4.7-11.84,9.74-15.37.45-.31.92-.62,1.4-.89a29.5,29.5,0,0,1,12.35-3.8c26.68-2.59,66.74,20.73,71,45.64C140.29,407.78,124.54,414.62,115.88,447.16Z"/><path class="a" d="M49.84,128.08c-11.73-.93-25.35-25.17-18.36-45.19,4.58-13.11,17.3-22.43,31.06-24C74.09,57.56,90.46,61.21,95,71.59c7,15.81-17.88,37.11-33.89,50.84C56.72,126.21,53.61,128.37,49.84,128.08Z"/><path class="d" d="M56.23,309.57c2.25,14.19,12.89,24.19,10.18,35.51a14.68,14.68,0,0,1-.8,2.52A47.07,47.07,0,0,0,62.06,357c-2.21,9.28.71,12.09-2.24,18.29-1.38,2.91-3.7,5.21-8.35,9.78a30.16,30.16,0,0,1-6.2,5.1,5.5,5.5,0,0,1-1.28.55,8.37,8.37,0,0,1-1.88.38c-.29-2.84-.51-5.6-.61-8.27-.74.73-1.59,1.57-2.54,2.48a34.1,34.1,0,0,1-5.56,4.66l-1.77-.38c-4.95-1.07-7.95-1.68-9.85-2.05.31-18.25,6.25-40.06,14-70.66,1.94-7.52,3.58-14.2,5-20.13,1.37-1.3,2.76-2.59,4.15-3.84q6.2-5.62,12.67-10.74c3.4-2.71,6.85-5.31,10.29-7.79C60.53,290.89,54.21,296.81,56.23,309.57Z"/><path class="a" d="M71.4,247.82a179.63,179.63,0,0,1-9,24.75c-2.87,6.3-3.16,5.94-4.74,9.56-8.07,18.56-8.22,44.51-4.26,55.64.72,2.05,2.68,6.65.91,10.62-.47,1.06-1.37,2.66-2.6,5.6,0,0-.71,1.8-1.22,3.62-2.62,9.18-.12,12.05-3.21,18.13a19.92,19.92,0,0,1-3.44,4.68c-.67.72-1.43,1.48-2.31,2.37-.74.73-1.59,1.57-2.54,2.48a34.1,34.1,0,0,1-5.56,4.66,6.8,6.8,0,0,1-1.65.78,18.49,18.49,0,0,1-11.3-1.44A27.31,27.31,0,0,1,9.59,378.72C-3.79,355.31,6,325.31,28,270c0,0,20.11-50.7,31.06-48,2.91.71,11.48,7.16,14.89,10.43C74,232.52,75.7,233,71.4,247.82Z"/><path class="b" d="M54.26,115.38c-6,.46-17-15.83-12.13-29.87,3-8.67,11.44-14.82,20.53-15.86,9.46-1.09,20.8,3.06,21.47,8.4.62,5-8.71,6.26-18.06,18.25C57.56,107.23,58.37,115.06,54.26,115.38Z"/><path class="e" d="M121.15,195.15c-17.36,1.67-26.41,88.5-7.06,159.57,3.85,14.14,9.12,28.75,22.59,35.3,13.69,6.65,32.37,3.31,43.77-7.06,6.94-6.32,10.14-14.29,12.71-25.42,2.66-11.49,7.2-37.35-8.47-104.49-6.51-27.91-11.13-39.88-21.18-43.78-6.44-2.5-12.78-.77-25.42-5.65C126,199,125,194.78,121.15,195.15Z"/><g class="f"><path class="g" d="M76.87,176.79a91.67,91.67,0,0,0,5.56,16.94c21.9,48.81,80.07,39.06,105.08,7.52C151.48,224.94,105.71,218.11,76.87,176.79Z"/></g><path class="h" d="M113.81,102.52c-.27-5.18,9.83-10.71,18.45-12.57,23.25-5,48.89,13.81,61.9,32.92,26.78,39.34,4.29,86.16,2.17,90.39-5.62,11.23-15.35,24.06-19.93,22.45-1.71-.6-1.58-2.82-5.58-8.51-3.67-5.21-5.49-5.79-7-8.52-3.67-6.64.35-15.4,1.54-18.35,7.29-18,6.25-59.29-10.74-77.74C139.47,106.13,114.24,110.65,113.81,102.52Z"/><path class="i" d="M99.55,122.19C79.23,142,75.33,175.28,89.14,195.55c24,35.21,94.46,21,107.37-6.29,3.86-8.17,2.76-17.93,1.61-28.23-1.07-9.59-3.22-28.73-15.24-41.06C164.72,101.32,124.05,98.27,99.55,122.19Z"/><path class="j" d="M83.93,185.1a44.38,44.38,0,0,0,5.21,10.45c20.51,30.11,75,24.09,98.44,4.64C153.82,214.8,111,210.58,83.93,185.1Z"/><path class="h" d="M134.9,115.38c.53,6.67-13.31,13.93-24.14,19.6-13.83,7.24-15,4.58-18.42,8.34-3.16,3.47-8,12.21,7.92,76.31,1,4,3.95,15.74,1.29,17-4.08,1.87-17.7-22.73-25.27-20-2.45.9-2.45,4-4.27,4.2-4.48.52-11.65-17.49-13.9-31.16-5.7-34.74,13.79-81.65,43-87.25C116.54,99.48,134.33,108.12,134.9,115.38Z"/><path class="i" d="M85.22,151.74c-3-2.47-11.78.46-15.59,6.95-3.29,5.61-2,12.51,1.29,17,4.39,5.83,13,8.27,15.5,5.76,1.6-1.64-.54-4.27-1.33-11.31C83.83,159,87.88,154,85.22,151.74Z"/><path class="k" d="M97.14,189.5c6.55,7.66,19,7.25,25.42,1.41,9-8.15,6-26.46-4.24-31.06-6.86-3.09-16.27.3-21.18,7.06C92.56,173.21,91.54,183,97.14,189.5Z"/><path class="k" d="M181.87,185.26c.75.56,5.95,4.42,11.29,2.83,10.19-3,15.33-24.22,7.06-31.07-5.23-4.33-16.77-3.7-22.59,4.24C171.65,169.41,175.29,180.38,181.87,185.26Z"/><path class="h" d="M139.1,121.06c30.79,12.79,35.68,16.65,38,18.63,3.51,3,11.52,9.89,15.38,21.3,3.46,10.2,2.05,19.49,4.1,19.79,1.7.26,4.38-5.92,5.73-11.25,4.07-16.11-.82-37.29-15.16-52.36-3.67-3.86-15.78-16.57-33.77-17.19-14.57-.49-30.06,7-29.74,12.5C123.77,115,127.18,116.12,139.1,121.06Z"/><path class="h" d="M133.46,119.61c-10.73,8.86-21.75,18-28.45,29.45-1.85,3.16-12.75,21.84-7.36,40.9,2.13,7.52,6.32,13.42,4.13,15.56s-10.06-1.22-14.09-4.33C69,186.76,68.77,132.94,96.79,113.7c17.86-12.26,45.2-9.11,46.63-3.9C144,111.8,140.58,113.73,133.46,119.61Z"/><path class="l" d="M205.39,5.93c6.85,3.87,5.89,15.5,9.12,15.61S217.63,10,225.36,6c5.19-2.71,12.46-1.25,16.76,2.47,8.22,7.08,4.42,21.28,3.49,24.78-5.26,19.67-26.05,28.24-30.09,29.82-6.39-2.71-24.93-11.56-31.22-30.3-1.59-4.75-4.39-13.07.09-20S199.43,2.55,205.39,5.93Z"/><path class="m" d="M236.23,65.94C241,55.6,253.25,48,265.89,50.41c10.92,2.07,20.75,11.32,21.18,21.18.52,12.16-13.47,20.08-25.42,26.83-5.94,3.36-9,5-12.71,4.24C238.64,100.49,229.29,81,236.23,65.94Z"/><path class="n" d="M242.48,69c3.17-6.86,11.28-11.88,19.65-10.3,7.24,1.37,13.75,7.51,14,14,.35,8.06-8.93,13.3-16.84,17.78-3.94,2.22-6,3.32-8.42,2.8C244.08,91.92,237.89,79,242.48,69Z"/><path class="o" d="M439.57,332.83c-7.95-12.21-32.13-11.46-39.54,1.41-4.29,7.46-2.73,18.61,4.24,25.42,8.39,8.2,22.55,8.09,31.07,0C442.92,352.45,444.49,340.38,439.57,332.83Z"/><path class="o" d="M299.78,389.31c7.17,19.22.18,19.54,8.47,53.66,3.28,13.52,6.69,23,1.41,29.65-5,6.32-15.1,6.88-18.36,7.07A34.82,34.82,0,0,1,273,475.45c-9.18-5.25-14.68-15-18.36-29.65-9.07-36-5.81-96,11.3-98.85C278.25,344.87,293.8,373.29,299.78,389.31Z"/><path class="o" d="M265.3,201C257,198,235.36,240.14,232,246.71c-11,21.41-39.28,76.71-21.07,109.21.79,1.41,8.26,14.48,15,13.32,3.22-.54,4.33-4,11-11.77a133.46,133.46,0,0,1,9.81-10.16c15.84-16.22,18.48-63,18.48-63h0C268.85,230,270.68,202.88,265.3,201Z"/><path class="m" d="M376,474c-4.48,3.15-14.45,10-26.83,8.47-1.51-.18-14.38-1.94-19.77-11.3s.23-20.2,5.65-35.3q1.76-4.87,3.06-9.15C281,415.49,260,392.44,251.06,375.9c-23.83-44.15-3.76-117.17-1.41-125.68,2.7-9.8,8.88-29.17,7.06-55.07-.2-2.74-2.25-13.36-6.36-34.6-6.47-33.46-8.67-48.79-2.87-68.3a30.55,30.55,0,0,1,2.87-6.54c22-38.39,107.24-45.69,136.27-10.59,14.35,17.34,14.23,44.13,14.12,73.43-.11,27.35-5,28.88-4.24,49.42.07,1.84.17,3.6.31,5.3,2.81,35.13,19.5,43.8,28.64,81.55,2.65,10.92,3.33,18.76,4.14,34.56C433.18,389.5,405.78,453.07,376,474Z"/><path class="p" d="M275.17,408c17.48,13.33,40.89,20.29,63.44,18.76,39.31-2.66,63.08-30.21,72.25-43.16-21.47,15.71-48.47,25.13-75.08,30.45A107.29,107.29,0,0,1,275.17,408Z"/><path class="m" d="M374.62,41.94c-13.08,4-22.06,20.13-18.36,28.24,2.41,5.27,8.44,3.32,16.94,9.88,12.68,9.78,10.71,22.91,16.95,24,8.37,1.48,26.86-19.55,21.18-39.54C407,49.28,389.39,37.46,374.62,41.94Z"/><path class="p" d="M400.9,262.06a155.67,155.67,0,0,1,28.08,87,198.7,198.7,0,0,0-.25-45.36c-.64-5.34-1.48-10.41-2.45-15.21C418.24,279.18,409.69,270.42,400.9,262.06Z"/><path class="m" d="M389.1,217.44c-10.61-22.05-15.59-30-12.54-33,6.08-6,36.29,15.74,42.4,20.13a220.52,220.52,0,0,1,39.5,36.35c16.64,19.64,37.91,44.76,38,76.18,0,6-.12,20.4-9.95,29.46-1.57,1.45-7.74,6.73-14.52,5.52-6.18-1.1-7.75-6.74-18.59-17.1-5.84-5.59-7.09-5.58-11.11-9.37-10.65-10-14.63-21.94-17.33-29.67C420,281.48,409.67,260.13,389.1,217.44Z"/><path class="q" d="M280.71,189.5h0c-4.75,3.17-9.59,2.53-11.29,2.83-7.87,1.36-8.48,28.24-8.48,28.24-.37,16.47-1.38,32.94-1.41,49.42-.08,43.37-5.67,56.87,5.65,76.25a50.39,50.39,0,0,0,8.47,11.3C293,376.67,330.37,380.38,349.9,366c27.45-20.2,16.66-70,7.06-114.38-9.15-42.29-27.47-81.65-42.36-80.49C307.4,171.71,291.19,182.52,280.71,189.5Z"/><path class="r" d="M246.91,90c10.16-.82,10.92-6.21,25.67-11,8.3-2.7,14.3-4.65,19.07-1.47,3.31,2.2,6.14,6.93,5.14,11-1.54,6.28-10.11,4.39-22,13.2-10.95,8.13-12,13.79-24.2,19.81-6.61,3.27-13.16,5-14.67,2.93-1-1.4,1.1-3.54,0-5.87-1.83-3.84-9.88-2.5-10.27-4.4-.47-2.31,11.58-3.75,13.94-11,1.43-4.42-1.79-8.1.73-11C242,90.23,244.83,90.18,246.91,90Z"/><g class="f"><path class="g" d="M316.66,195.17c-14.51,4.29-29.24,3.92-30.6,3.91a81.31,81.31,0,0,1-30.57-5.83c7.31,6.07,20.2,14.76,37.93,17.43,25.51,3.85,58.92-5.07,73.43-31.06,7-12.64,7.44-25.36,7.06-32.48C369.94,153.8,350.5,185.15,316.66,195.17Z"/></g><path class="j" d="M241,128.15c4-1.88,10.35,3.67,13.21,7.33,4.89,6.29,6.74,16.46,1.46,23.48-.29.39-5.51,7.18-10.26,5.86C236.42,162.33,233.42,131.78,241,128.15Z"/><path class="i" d="M330.53,85.61C342,88,356,91,365.74,103.21c13.05,16.35,11.35,40.4,4.4,55.75-19.92,44-100,54.38-120.29,29.34-5.8-7.17-6.33-16.78-7.34-35.21-1.12-20.31-1.9-34.58,5.87-46.94C264.87,79.91,308.22,80.88,330.53,85.61Z"/><path class="j" d="M318.84,189.5c-17.28,6.72-38.46,10.82-57.8,7,29.6,13.41,91.87.48,109.1-37.54a59.81,59.81,0,0,0,3.85-11.8A131.33,131.33,0,0,1,318.84,189.5Z"/><path class="r" d="M307.06,90c13.17-1.09,26.63-2.64,32.27,4.4,7.35,9.18-5.45,24.07,3.67,35.94,3,3.85,8,7.14,10.27,5.87,2.82-1.6.72-10.15,1.46-10.27,1.18-.2,6.64,21.14,13.94,27.14a1.79,1.79,0,0,1,.23.19c2.76,2.67-3.28,11.73-2.43,12.28.6.38,4.27-3.54,7.34-8.8a37.63,37.63,0,0,0,4.4-10.27c.62-2.5.65-6.8.73-15.41a59,59,0,0,0-.48-9.66c-.43-2.93-.67-2.82-.67-4.2,0-4.88,3.12-6.46,3.35-10.34.21-3.56-2.85-3.86-2.93-7.34-.12-4.56,4.56-5.78,4.4-8.8-.27-4.94-13-4.71-28.61-13.93-7.4-4.37-8.16-6.56-13.93-8.07-10-2.63-18.76,1-19.08,0-.39-1.31,15-6,14.67-7.34s-17.63.48-33.74,8.8a37.9,37.9,0,0,0-10.27,7.34c-5,5.15-10.44,13.93-8.06,16.87C285.84,97.19,293.22,91.15,307.06,90Z"/><path class="i" d="M355.47,113.48c-2.77,2.22-1.36,8.82,1.47,22,2.2,10.3,3.35,15.46,5.86,16.14,5.65,1.53,19.68-12.33,16.14-24.94C375.8,115.51,360.1,109.76,355.47,113.48Z"/><path class="r" d="M270.38,88.54C263.72,102.33,295,132,297.52,130.35c1.28-.81-4-9.72-1.46-11.74s8.68,5.59,22,8.81a57.93,57.93,0,0,0,11.74,1.46c3.9.16,8.38,0,17.6-1.46,11.08-1.78,22-3.53,22-5.87,0-2-8.12-1.33-14.67-7.34-5.41-5-6-11-7.33-14.67C339.77,79.5,278.35,72.07,270.38,88.54Z"/><path class="r" d="M241.78,139.15c-1.68-.17-7.8-27.31,7.33-44,.71-.78,13.61-14.7,24.94-10.27a14.54,14.54,0,0,1,8.8,10.27c1.88,9.94-19.35,21.5-27.87,26.41a26.06,26.06,0,0,0-7.33,5.87C242.57,133.36,242.57,139.23,241.78,139.15Z"/><path class="n" d="M378.15,49.7c-7.78,1.23-15,8.64-14.12,14.13.71,4.51,6.33,4.2,13.31,11.78,7.18,7.82,6.49,13.7,10.11,14.34,5.34.94,15.14-11.7,12.65-23.61C398.06,56.56,388,48.15,378.15,49.7Z"/><path class="s" d="M258.12,150c4.54,8.41-1.49,20.5-7.06,21.18-3.1.39-5.82-2.78-7.06-4.23-6.26-7.3-7-20.86-1.41-24C246.84,140.5,254.93,144.07,258.12,150Z"/><path class="s" d="M309,169.73c6.28,4.22,14.13,1.31,14.46,1.18,7.07-2.74,11.46-10.14,10.93-16.69-1-11.95-18.32-19.87-26.55-14.83S299.42,163.33,309,169.73Z"/><path d="M112.67,154.2c-2.7,4.14,1.82,12.91,8.48,15.53,3.37,1.33,8.86,1.7,11.29-1.41,2.91-3.72.16-10.77-4.23-14.12C123.24,150.41,115.08,150.52,112.67,154.2Z"/><path d="M166.33,152.79c-3.78,3.79-4.93,10.9-1.41,14.12s10.65,1.22,14.12-2.83c2.89-3.37,4.42-9.4,1.41-12.71C177.2,147.79,170.09,149,166.33,152.79Z"/><path d="M246.82,145.73c.24,1.13,2.48.78,8.47,2.82s7.45,3.62,8.48,2.82c1.8-1.4.55-9-4.24-11.29C253.94,137.44,246.36,143.51,246.82,145.73Z"/><path d="M297.11,140c8.38-5.11,21.13.17,21.06,2.68,0,1.23-3.18,1.07-16.87,5.33-7.23,2.25-9.66,3.32-10.52,2.26C289.48,148.64,292.47,142.81,297.11,140Z"/><path class="t" d="M252.19,170.94h-.44c-6.49-.17-12.94-4.24-17.25-10.89s-5.52-14.75-3-20.87l.47.19-.47-.19c2.47-5.92,8.29-10.31,16-12.05,8-1.81,16-.24,20.85,4.1,5.67,5.09,6,12.84,5.81,15.93a26.87,26.87,0,0,1-7,16.4C262.89,168.33,257.58,170.94,252.19,170.94ZM254,127.39a28.24,28.24,0,0,0-6.32.72c-7.35,1.66-12.91,5.84-15.25,11.45-2.43,5.82-1.32,13.46,2.88,19.95s10.27,10.27,16.44,10.43c11.44.34,20.88-12,21.37-22.82.11-2.31,0-10.21-5.48-15.14C264.33,129,259.41,127.39,254,127.39Z"/><path class="t" d="M304.43,168.12H304c-6.5-.17-12.95-4.23-17.25-10.88s-5.52-14.76-3-20.87h0c2.47-5.92,8.28-10.32,16-12.05,8-1.82,16-.25,20.84,4.1,5.68,5.08,6,12.83,5.82,15.93a27,27,0,0,1-7,16.4C315.13,165.51,309.83,168.12,304.43,168.12Zm-20.19-31.57.46.19c-2.42,5.82-1.32,13.46,2.89,19.95S297.86,167,304,167.11c11.44.33,20.89-12,21.38-22.82.1-2.3,0-10.2-5.48-15.14-4.62-4.13-12.27-5.61-20-3.87C292.6,127,287,131.12,284.7,136.74Z"/><rect class="t" x="272.95" y="147.34" width="9.88" height="1"/><path d="M110.61,150.34l4.24,8.47c.43.87,1.73.11,1.3-.75l-4.24-8.48c-.43-.86-1.73-.1-1.3.76Z"/><path d="M114.77,150.16l2.83,9.89a.75.75,0,0,0,1.45-.4l-2.83-9.89a.75.75,0,0,0-1.45.4Z"/><path d="M181.22,146.76,177,155.23c-.43.86.87,1.62,1.3.76l4.23-8.47c.43-.86-.86-1.62-1.29-.76Z"/><path d="M176.91,146.94l-2.83,9.88a.75.75,0,0,0,1.45.4l2.82-9.88a.75.75,0,0,0-1.44-.4Z"/><path class="u" d="M145.15,182.44c-4.3-4-.55-17.26,5.65-18.36,5.16-.91,12.81,6.46,11.3,12.71C160.47,183.5,149,186,145.15,182.44Z"/><path class="v" d="M270.83,175.38c-5.16-6.18.68-17.62,5.65-18.36,5.88-.87,15,12.63,11.29,18.36C285.12,179.53,275.15,180.57,270.83,175.38Z"/></svg>